<svg id="visual" viewBox="0 0 600 200" width="600" height="200" xmlns="http://www.w3.org/2000/svg" xmlns:xlink="http://www.w3.org/1999/xlink" version="1.1"><path d="M0 116L14.3 115.8C28.7 115.7 57.3 115.3 85.8 117.3C114.3 119.3 142.7 123.7 171.2 123.8C199.7 124 228.3 120 257 119.3C285.7 118.7 314.3 121.3 343 123.5C371.7 125.7 400.3 127.3 428.8 126.3C457.3 125.3 485.7 121.7 514.2 123.8C542.7 126 571.3 134 585.7 138L600 142L600 201L585.7 201C571.3 201 542.7 201 514.2 201C485.7 201 457.3 201 428.8 201C400.3 201 371.7 201 343 201C314.3 201 285.7 201 257 201C228.3 201 199.7 201 171.2 201C142.7 201 114.3 201 85.8 201C57.3 201 28.7 201 14.3 201L0 201Z" fill="#fd6156"></path><path d="M0 134L14.3 135.2C28.7 136.3 57.3 138.7 85.8 139.5C114.3 140.3 142.7 139.7 171.2 139.5C199.7 139.3 228.3 139.7 257 142.3C285.7 145 314.3 150 343 148.7C371.7 147.3 400.3 139.7 428.8 136.5C457.3 133.3 485.7 134.7 514.2 134.2C542.7 133.7 571.3 131.3 585.7 130.2L600 129L600 201L585.7 201C571.3 201 542.7 201 514.2 201C485.7 201 457.3 201 428.8 201C400.3 201 371.7 201 343 201C314.3 201 285.7 201 257 201C228.3 201 199.7 201 171.2 201C142.7 201 114.3 201 85.8 201C57.3 201 28.7 201 14.3 201L0 201Z" fill="#fb5f66"></path><path d="M0 160L14.3 157.8C28.7 155.7 57.3 151.3 85.8 148.2C114.3 145 142.7 143 171.2 142.7C199.7 142.3 228.3 143.7 257 144.8C285.7 146 314.3 147 343 149.3C371.7 151.7 400.3 155.3 428.8 156.5C457.3 157.7 485.7 156.3 514.2 156.3C542.7 156.3 571.3 157.7 585.7 158.3L600 159L600 201L585.7 201C571.3 201 542.7 201 514.2 201C485.7 201 457.3 201 428.8 201C400.3 201 371.7 201 343 201C314.3 201 285.7 201 257 201C228.3 201 199.7 201 171.2 201C142.7 201 114.3 201 85.8 201C57.3 201 28.7 201 14.3 201L0 201Z" fill="#f75f75"></path><path d="M0 153L14.3 155.7C28.7 158.3 57.3 163.7 85.8 163.7C114.3 163.7 142.7 158.3 171.2 157.8C199.7 157.3 228.3 161.7 257 163.5C285.7 165.3 314.3 164.7 343 165.5C371.7 166.3 400.3 168.7 428.8 169C457.3 169.3 485.7 167.7 514.2 166.8C542.7 166 571.3 166 585.7 166L600 166L600 201L585.7 201C571.3 201 542.7 201 514.2 201C485.7 201 457.3 201 428.8 201C400.3 201 371.7 201 343 201C314.3 201 285.7 201 257 201C228.3 201 199.7 201 171.2 201C142.7 201 114.3 201 85.8 201C57.3 201 28.7 201 14.3 201L0 201Z" fill="#f16183"></path><path d="M0 166L14.3 167.3C28.7 168.7 57.3 171.3 85.8 172C114.3 172.7 142.7 171.3 171.2 172.7C199.7 174 228.3 178 257 179.3C285.7 180.7 314.3 179.3 343 177.3C371.7 175.3 400.3 172.7 428.8 173.3C457.3 174 485.7 178 514.2 177.7C542.7 177.3 571.3 172.7 585.7 170.3L600 168L600 201L585.7 201C571.3 201 542.7 201 514.2 201C485.7 201 457.3 201 428.8 201C400.3 201 371.7 201 343 201C314.3 201 285.7 201 257 201C228.3 201 199.7 201 171.2 201C142.7 201 114.3 201 85.8 201C57.3 201 28.7 201 14.3 201L0 201Z" fill="#e9658f"></path><path d="M0 191L14.3 190.8C28.7 190.7 57.3 190.3 85.8 189C114.3 187.7 142.7 185.3 171.2 183.7C199.7 182 228.3 181 257 180.8C285.7 180.7 314.3 181.3 343 182C371.7 182.7 400.3 183.3 428.8 182.8C457.3 182.3 485.7 180.7 514.2 180.3C542.7 180 571.3 181 585.7 181.5L600 182L600 201L585.7 201C571.3 201 542.7 201 514.2 201C485.7 201 457.3 201 428.8 201C400.3 201 371.7 201 343 201C314.3 201 285.7 201 257 201C228.3 201 199.7 201 171.2 201C142.7 201 114.3 201 85.8 201C57.3 201 28.7 201 14.3 201L0 201Z" fill="#df699a"></path></svg>