<svg id="visual" viewBox="0 0 900 600" width="900" height="600" xmlns="http://www.w3.org/2000/svg" xmlns:xlink="http://www.w3.org/1999/xlink" version="1.1"><path d="M0 449L21.5 457.5C43 466 86 483 128.8 493.8C171.7 504.7 214.3 509.3 257.2 500.3C300 491.3 343 468.7 385.8 446.8C428.7 425 471.3 404 514.2 394C557 384 600 385 642.8 407.3C685.7 429.7 728.3 473.3 771.2 482.3C814 491.3 857 465.7 878.5 452.8L900 440L900 601L878.5 601C857 601 814 601 771.2 601C728.3 601 685.7 601 642.8 601C600 601 557 601 514.2 601C471.3 601 428.7 601 385.8 601C343 601 300 601 257.2 601C214.3 601 171.7 601 128.8 601C86 601 43 601 21.5 601L0 601Z" fill="#756dfd" stroke-linecap="round" stroke-linejoin="miter"></path></svg>